<?xml version="1.0" encoding="UTF-8" standalone="no"?>
<!-- Created with Inkscape (http://www.inkscape.org/) -->

<svg
   version="1.1"
   id="svg5479"
   width="800"
   height="800"
   viewBox="0 0 800 800"
   sodipodi:docname="military-aircraft-color-publicdomainvectors.org.svg"
   inkscape:version="1.2 (dc2aedaf03, 2022-05-15)"
   xmlns:inkscape="http://www.inkscape.org/namespaces/inkscape"
   xmlns:sodipodi="http://sodipodi.sourceforge.net/DTD/sodipodi-0.dtd"
   xmlns="http://www.w3.org/2000/svg"
   xmlns:svg="http://www.w3.org/2000/svg">
  <defs
     id="defs5483">
    <clipPath
       clipPathUnits="userSpaceOnUse"
       id="clipPath5495">
      <path
         d="M 0,600 H 600 V 0 H 0 Z"
         id="path5493" />
    </clipPath>
  </defs>
  <sodipodi:namedview
     id="namedview5481"
     pagecolor="#ffffff"
     bordercolor="#000000"
     borderopacity="0.25"
     inkscape:showpageshadow="2"
     inkscape:pageopacity="0.0"
     inkscape:pagecheckerboard="0"
     inkscape:deskcolor="#d1d1d1"
     showgrid="false"
     inkscape:zoom="1.04625"
     inkscape:cx="400"
     inkscape:cy="400.4779"
     inkscape:window-width="1920"
     inkscape:window-height="1017"
     inkscape:window-x="-8"
     inkscape:window-y="-8"
     inkscape:window-maximized="1"
     inkscape:current-layer="g5487">
    <inkscape:page
       x="0"
       y="0"
       id="page5485"
       width="800"
       height="800" />
  </sodipodi:namedview>
  <g
     id="g5487"
     inkscape:groupmode="layer"
     inkscape:label="Page 1"
     transform="matrix(1.3333333,0,0,-1.3333333,0,800)">
    <g
       id="g5489">
      <g
         id="g5491"
         clip-path="url(#clipPath5495)">
        <g
           id="g5497"
           transform="translate(492.374,146.2266)">
          <path
             d="M 0,0 C 1.744,1.908 3.561,3.889 5.334,5.816 33.856,36.8 41.068,46.955 42.408,58.051 42.919,62.262 40.766,66.05 36.797,68.295 L -46.587,17.936 Z"
             style="fill:#55332d;fill-opacity:1;fill-rule:nonzero;stroke:none"
             id="path5499" />
        </g>
        <g
           id="g5501"
           transform="translate(516.9609,213.7227)">
          <path
             d="m 0,0 c -3.411,-1.65 -8.046,-3.587 -10.298,-4.306 -5.525,-1.765 -26.196,-11.916 -35.4,-17.385 -4.098,-2.438 -12.111,-7.61 -17.807,-11.49 l -6.457,-4.405 -1.212,-11.975 83.384,50.36 C 11.251,1.341 10.188,1.795 9.028,2.141 6.4,2.93 5.756,2.781 0,0"
             style="fill:#755725;fill-opacity:1;fill-rule:nonzero;stroke:none"
             id="path5503" />
        </g>
        <g
           id="g5505"
           transform="translate(444.2031,101.3652)">
          <path
             d="m 0,0 c 5.799,4.844 12.332,10.427 19.769,16.872 4.185,3.634 7.93,6.6 8.319,6.6 0.389,0 0.848,0.417 1.015,0.918 0.227,0.685 1.084,0.565 3.351,-0.454 4.097,-1.85 5.033,-1.122 3.198,2.474 l -1.456,2.856 3.82,4.375 c 1.522,1.736 5.591,6.229 10.155,11.22 L 1.584,62.797 Z"
             style="fill:#2b3f39;fill-opacity:1;fill-rule:nonzero;stroke:none"
             id="path5507" />
        </g>
        <g
           id="g5509"
           transform="translate(421.5088,444.8271)">
          <path
             d="m 0,0 c 5.717,10.995 12.263,23.68 16.958,32.901 5.353,10.508 8.108,16.85 9.397,22.397 L -42.633,37.162 Z"
             style="fill:#f84b00;fill-opacity:1;fill-rule:nonzero;stroke:none"
             id="path5511" />
        </g>
        <g
           id="g5513"
           transform="translate(447.8643,500.125)">
          <path
             d="m 0,0 c 0.676,2.903 0.949,5.59 0.983,8.541 0.076,6.53 -3.577,14.178 -8.351,17.478 -6.86,4.746 -14.164,2.345 -25.713,-8.435 -3.365,-3.152 -8.14,-7.537 -10.596,-9.743 -7.79,-6.999 -16.345,-14.816 -23.245,-21.198 l -2.066,-4.779 z"
             style="fill:#f62100;fill-opacity:1;fill-rule:nonzero;stroke:none"
             id="path5515" />
        </g>
        <g
           id="g5517"
           transform="translate(393.7734,101.7559)">
          <path
             d="m 0,0 c -2.684,-4.357 -3.184,-6.187 -6.049,-13.469 -4.194,-7.313 -2.14,-15.141 4.412,-17.037 3.199,-0.928 3.431,-0.928 6.796,0.009 6.78,1.882 14.188,5.868 25.754,14.505 L 8.713,15.722 C 5.035,8.856 1.256,1.99 0,0"
             style="fill:#3c5a34;fill-opacity:1;fill-rule:nonzero;stroke:none"
             id="path5519" />
        </g>
        <g
           id="g5521"
           transform="translate(426.2422,162.8164)">
          <path
             d="m 0,0 c 0.84,-0.716 1.413,-1.214 1.648,-1.435 1.275,-1.2 1.057,-1.626 -4.742,-9.398 -7.8,-10.457 -10.363,-14.397 -13.519,-20.815 -1.506,-3.051 -4.293,-8.371 -7.143,-13.691 l 22.2,-31.714 c 5.456,4.075 11.841,9.19 19.517,15.602 l 1.584,62.797 z"
             style="fill:#37652f;fill-opacity:1;fill-rule:nonzero;stroke:none"
             id="path5523" />
        </g>
        <g
           id="g5525"
           transform="translate(380.9424,486.7676)">
          <path
             d="m 0,0 c -0.797,-0.738 -1.573,-1.458 -2.322,-2.153 l 0.256,-2.625 z"
             style="fill:#fb1a00;fill-opacity:1;fill-rule:nonzero;stroke:none"
             id="path5527" />
        </g>
        <g
           id="g5529"
           transform="translate(378.3594,362.2725)">
          <path
             d="m 0,0 c 1.392,2.06 5.125,9.146 18.042,34.143 6.201,12.005 9.658,17.928 10.613,18.178 1.058,0.279 1.317,0.844 1.038,2.299 -0.231,1.215 0.269,3.05 1.34,4.928 0.312,0.545 0.909,1.648 1.733,3.191 l -61.597,1.512 z"
             style="fill:#fd9b00;fill-opacity:1;fill-rule:nonzero;stroke:none"
             id="path5531" />
        </g>
        <g
           id="g5533"
           transform="translate(377.9951,228.7256)">
          <path
             d="m 0,0 -1.661,-24.604 c 5.317,-4.474 9.876,-8.245 13.031,-10.754 5.922,-4.717 30.109,-24.774 36.877,-30.551 l 19.545,1.345 z"
             style="fill:#708a24;fill-opacity:1;fill-rule:nonzero;stroke:none"
             id="path5535" />
        </g>
        <g
           id="g5537"
           transform="translate(445.7871,164.1621)">
          <path
             d="m 0,0 1.212,11.975 -3.889,-2.654 -4.56,5.219 c -2.503,2.874 -5.386,6.267 -6.414,7.541 -2.448,3.055 -18.54,21.116 -31.23,35.063 -2.728,2.998 -5.281,5.8 -7.682,8.434 l -15.229,-1.014 z"
             style="fill:#848628;fill-opacity:1;fill-rule:nonzero;stroke:none"
             id="path5539" />
        </g>
        <g
           id="g5541"
           transform="translate(393.2246,229.7402)">
          <path
             d="M 0,0 C -4.275,4.69 -8.066,8.841 -11.495,12.582 L -15.229,-1.015 Z"
             style="fill:#b18705;fill-opacity:1;fill-rule:nonzero;stroke:none"
             id="path5543" />
        </g>
        <g
           id="g5545"
           transform="translate(349.5283,426.5234)">
          <path
             d="m 0,0 61.597,-1.512 c 2.213,4.153 6.06,11.5 10.383,19.816 L 29.348,55.466 Z"
             style="fill:#ff7400;fill-opacity:1;fill-rule:nonzero;stroke:none"
             id="path5547" />
        </g>
        <g
           id="g5549"
           transform="translate(264.1289,385.4375)">
          <path
             d="M 0,0 33.456,-91.855 85.399,41.086 Z"
             style="fill:#ffb600;fill-opacity:1;fill-rule:nonzero;stroke:none"
             id="path5551" />
        </g>
        <g
           id="g5553"
           transform="translate(377.9951,228.7256)">
          <path
             d="M 0,0 3.734,13.597 C -8.824,27.3 -16.523,35.526 -25.379,44.768 c -11.698,12.208 -13.427,14.311 -12.573,15.294 0.421,0.479 3.533,6.178 7.523,13.74 L -80.41,64.856 Z"
             style="fill:#dfa500;fill-opacity:1;fill-rule:nonzero;stroke:none"
             id="path5555" />
        </g>
        <g
           id="g5557"
           transform="translate(297.585,293.582)">
          <path
             d="m 0,0 49.981,8.945 c 1.185,2.245 2.447,4.654 3.739,7.14 5.649,10.864 10.729,20.292 11.291,20.954 0.625,0.732 2.803,1.381 5.654,1.683 2.053,0.222 4.731,1.404 6.225,1.96 1.492,0.547 1.668,1.414 1.445,4.033 -0.222,2.613 -0.199,4.18 -0.454,7.146 -0.996,5.122 -0.839,9.984 0.376,11.596 0.601,0.793 1.107,1.919 1.121,2.503 0.01,0.584 0.472,1.59 1.029,2.234 0.102,0.121 0.222,0.281 0.367,0.496 l -28.831,64.251 z"
             style="fill:#fcaf00;fill-opacity:1;fill-rule:nonzero;stroke:none"
             id="path5559" />
        </g>
        <g
           id="g5561"
           transform="translate(366.9785,212.0537)">
          <path
             d="m 0,0 c 3.278,-2.797 6.432,-5.47 9.356,-7.932 l 1.661,24.604 z"
             style="fill:#849224;fill-opacity:1;fill-rule:nonzero;stroke:none"
             id="path5563" />
        </g>
        <g
           id="g5565"
           transform="translate(338.4121,236.7871)">
          <path
             d="M 0,0 C 8.888,-7.817 19.229,-16.768 28.566,-24.733 L 39.583,-8.061 Z"
             style="fill:#b5a315;fill-opacity:1;fill-rule:nonzero;stroke:none"
             id="path5567" />
        </g>
        <g
           id="g5569"
           transform="translate(263.7988,226.1445)">
          <path
             d="M 0,0 C 0.572,0.357 0.136,0.243 0.892,0.945 1.93,1.909 1.517,3.457 1.8,5.816 c 0.287,2.364 0.741,4.713 1.015,5.223 0.246,0.454 8.641,4.91 19.343,10.286 l -36.208,7.374 z"
             style="fill:#b5a315;fill-opacity:1;fill-rule:nonzero;stroke:none"
             id="path5571" />
        </g>
        <g
           id="g5573"
           transform="translate(378.6201,484.6143)">
          <path
             d="m 0,0 c -1.038,-0.965 -2.025,-1.885 -2.954,-2.752 l 3.21,0.127 z"
             style="fill:#ff3e00;fill-opacity:1;fill-rule:nonzero;stroke:none"
             id="path5575" />
        </g>
        <g
           id="g5577"
           transform="translate(378.876,481.9893)">
          <path
             d="m 0,0 -3.21,-0.127 c -4.815,-4.503 -8.027,-7.591 -8.241,-7.971 -0.552,-0.992 -1.234,-0.82 -4.821,1.204 -5.46,3.087 -11.438,5.239 -14.525,5.239 -2.985,0 -6.545,-1.725 -7.592,-3.681 -1.946,-3.643 0.112,-11.985 4.593,-18.632 1.349,-2.002 1.924,-3.453 1.423,-3.619 -1.075,-0.361 -6.146,-4.594 -10.882,-9.089 -1.411,-1.338 -4.555,-4.215 -7.982,-7.31 l 21.889,-11.48 z"
             style="fill:#ff7100;fill-opacity:1;fill-rule:nonzero;stroke:none"
             id="path5579" />
        </g>
        <g
           id="g5581"
           transform="translate(297.585,293.582)">
          <path
             d="m 0,0 -47.836,-38.738 36.208,-7.374 c 1.212,0.609 2.452,1.229 3.715,1.857 l 22.561,11.221 9.085,-8.44 c 3.995,-3.712 10.094,-9.165 17.094,-15.321 l 39.583,-8.061 z"
             style="fill:#e0a200;fill-opacity:1;fill-rule:nonzero;stroke:none"
             id="path5583" />
        </g>
        <g
           id="g5585"
           transform="translate(349.5283,426.5234)">
          <path
             d="M 0,0 -21.89,11.479 C -23.439,10.08 -25.047,8.636 -26.579,7.268 -31.497,2.874 -36.646,-1.899 -38.018,-3.337 l -2.493,-2.614 -1.974,1.79 c -16.588,15.016 -37.863,33.379 -38.673,33.379 -0.316,0 -1.575,0.872 -2.809,1.937 -2.526,2.187 -6.65,4.377 -10.703,5.936 l 4.464,-37.642 c 3.547,-3.927 7.136,-7.74 9.896,-10.456 3.115,-3.064 5.664,-5.974 5.664,-6.466 0,-0.491 -1.298,-2.006 -2.888,-3.369 -1.109,-0.957 -4.8,-4.389 -9.247,-8.589 l 1.382,-11.655 z"
             style="fill:#ff9000;fill-opacity:1;fill-rule:nonzero;stroke:none"
             id="path5587" />
        </g>
        <g
           id="g5589"
           transform="translate(219.8154,318.2334)">
          <path
             d="M 0,0 77.77,-24.651 44.314,67.204 Z"
             style="fill:#ffc000;fill-opacity:1;fill-rule:nonzero;stroke:none"
             id="path5591" />
        </g>
        <g
           id="g5593"
           transform="translate(220.9316,215.0391)">
          <path
             d="m 0,0 c 12.909,6.359 19.002,9.514 19.843,10.247 3.559,2.647 19.596,-1.024 21.844,0.195 0.612,0.332 0.966,0.531 1.18,0.663 l -14.05,28.7 z"
             style="fill:#c49e08;fill-opacity:1;fill-rule:nonzero;stroke:none"
             id="path5595" />
        </g>
        <g
           id="g5597"
           transform="translate(164.9365,197.0303)">
          <path
             d="m 0,0 1.816,-8.969 c 6.932,3.364 11.543,5.478 11.969,5.343 1.607,-0.52 1.791,-0.747 1.56,0.932 0.028,0.513 6.964,4.286 15.411,8.383 10.322,5.009 18.664,9.079 25.239,12.32 l 28.818,39.804 z"
             style="fill:#f0ae00;fill-opacity:1;fill-rule:nonzero;stroke:none"
             id="path5599" />
        </g>
        <g
           id="g5601"
           transform="translate(247.5381,465.6699)">
          <path
             d="m 0,0 -6.626,-13.097 c 1.769,-5.346 2.825,-7.443 5.581,-11.366 2.137,-3.031 7.435,-9.264 12.829,-15.234 L 7.32,-2.056 C 4.699,-1.048 2.11,-0.306 0,0"
             style="fill:#ff9700;fill-opacity:1;fill-rule:nonzero;stroke:none"
             id="path5603" />
        </g>
        <g
           id="g5605"
           transform="translate(262.7471,397.0928)">
          <path
             d="M 0,0 C -1.912,-1.806 -3.963,-3.752 -6.011,-5.705 L -8.53,-8.11 1.382,-11.655 Z"
             style="fill:#ff9700;fill-opacity:1;fill-rule:nonzero;stroke:none"
             id="path5607" />
        </g>
        <g
           id="g5609"
           transform="translate(249.749,254.8437)">
          <path
             d="M 0,0 47.836,38.738 -29.934,63.39 Z"
             style="fill:#ffb900;fill-opacity:1;fill-rule:nonzero;stroke:none"
             id="path5611" />
        </g>
        <g
           id="g5613"
           transform="translate(244.4639,465.7344)">
          <path
             d="m 0,0 c -5.57,-1.001 -6.535,-3.902 -3.948,-11.944 0.136,-0.424 0.268,-0.828 0.396,-1.217 L 3.074,-0.065 C 1.863,0.111 0.809,0.145 0,0"
             style="fill:#ff8100;fill-opacity:1;fill-rule:nonzero;stroke:none"
             id="path5615" />
        </g>
        <g
           id="g5617"
           transform="translate(264.1289,385.4375)">
          <path
             d="m 0,0 -9.912,3.545 -9.855,-9.409 -5.051,4.445 c -7.953,6.994 -16.006,12.678 -23.507,16.744 l 4.011,-82.529 z"
             style="fill:#ffbc00;fill-opacity:1;fill-rule:nonzero;stroke:none"
             id="path5619" />
        </g>
        <g
           id="g5621"
           transform="translate(219.8154,318.2334)">
          <path
             d="m 0,0 -56.985,-18.686 9.575,-10.088 -9.872,-10.152 87.216,-24.464 z"
             style="fill:#ffc600;fill-opacity:1;fill-rule:nonzero;stroke:none"
             id="path5623" />
        </g>
        <g
           id="g5625"
           transform="translate(249.749,254.8437)">
          <path
             d="m 0,0 -87.216,24.464 -3.171,-3.261 c -7.172,-7.374 -15.021,-15.531 -17.44,-18.127 l -0.424,-0.454 23.438,-60.435 z"
             style="fill:#ffba00;fill-opacity:1;fill-rule:nonzero;stroke:none"
             id="path5627" />
        </g>
        <g
           id="g5629"
           transform="translate(209.4502,403.876)">
          <path
             d="m 0,0 -20.061,3.602 c -2.819,-0.612 -2.837,-0.697 -3.474,-5.138 -0.586,-4.098 -0.434,-5.109 1.605,-10.614 1.988,-5.362 4.598,-10.554 7.948,-15.752 L 5.212,-2.505 C 3.438,-1.575 1.698,-0.739 0,0"
             style="fill:#ffbd00;fill-opacity:1;fill-rule:nonzero;stroke:none"
             id="path5631" />
        </g>
        <g
           id="g5633"
           transform="translate(158.2451,343.4551)">
          <path
             d="m 0,0 c -1.641,1.391 -3.784,2.989 -4.764,3.559 -0.98,0.57 -2.612,1.78 -3.627,2.693 -2.486,2.234 -13.137,6.266 -16.94,6.41 -1.905,0.074 -3.87,-0.403 -5.178,-1.261 -1.999,-1.311 -2.085,-1.59 -1.714,-5.682 0.448,-4.931 5.119,-15.253 8.978,-19.841 2.011,-2.385 5.396,-6.075 13.854,-15.034 L 7.692,-6.554 C 4.656,-3.958 1.859,-1.574 0,0"
             style="fill:#ffbd00;fill-opacity:1;fill-rule:nonzero;stroke:none"
             id="path5635" />
        </g>
        <g
           id="g5637"
           transform="translate(215.8037,400.7627)">
          <path
             d="m 0,0 c -0.382,0.207 -0.763,0.409 -1.142,0.608 l -19.194,-25.397 c 3.789,-5.882 8.525,-11.771 14.375,-17.92 l 6.219,-6.534 -3.893,-3.602 c -2.15,-1.974 -8.47,-8.027 -14.055,-13.44 -5.585,-5.414 -11.075,-10.568 -12.199,-11.458 -2.039,-1.599 -2.052,-1.604 -3.679,-0.139 -1.095,0.988 -9.329,8.065 -16.298,14.021 l -17.083,-22.603 c 3.051,-3.232 6.761,-7.15 11.307,-11.94 l 2.668,-2.812 56.986,18.687 z"
             style="fill:#ffcd00;fill-opacity:1;fill-rule:nonzero;stroke:none"
             id="path5639" />
        </g>
        <g
           id="g5641"
           transform="translate(189.5469,407.5117)">
          <path
             d="m 0,0 c -0.055,-0.012 -0.105,-0.022 -0.157,-0.034 l 20.06,-3.602 C 12.086,-0.231 5.161,1.119 0,0"
             style="fill:#ff9100;fill-opacity:1;fill-rule:nonzero;stroke:none"
             id="path5643" />
        </g>
        <g
           id="g5645"
           transform="translate(164.9365,197.0303)">
          <path
             d="m 0,0 -23.438,60.435 -3.975,-4.259 -5.485,2.605 c -2.03,0.964 -4.004,1.692 -5.882,2.193 L -44.607,6.457 Z"
             style="fill:#ffc200;fill-opacity:1;fill-rule:nonzero;stroke:none"
             id="path5647" />
        </g>
        <g
           id="g5649"
           transform="translate(120.3291,203.4873)">
          <path
             d="m 0,0 26.062,-25.497 c 7.648,3.822 14.762,7.354 20.362,10.071 l -1.817,8.969 z"
             style="fill:#f5b600;fill-opacity:1;fill-rule:nonzero;stroke:none"
             id="path5651" />
        </g>
        <g
           id="g5653"
           transform="translate(109.707,159.998)">
          <path
             d="m 0,0 c 7.224,3.323 17.85,8.573 35.29,17.295 0.467,0.234 0.932,0.466 1.395,0.697 L 10.622,43.489 Z"
             style="fill:#f3b000;fill-opacity:1;fill-rule:nonzero;stroke:none"
             id="path5655" />
        </g>
        <g
           id="g5657"
           transform="translate(106.3506,221.0176)">
          <path
             d="M 0,0 C -3.98,-4.068 -9.258,-9.417 -16.233,-16.481 L 13.979,-17.53 Z"
             style="fill:#ffb800;fill-opacity:1;fill-rule:nonzero;stroke:none"
             id="path5659" />
        </g>
        <g
           id="g5661"
           transform="translate(126.1563,258.0039)">
          <path
             d="m 0,0 c -7.131,1.904 -12.831,0.505 -14.537,-3.981 -1.332,-3.5 2.209,-15.096 5.831,-19.101 0.961,-1.059 2.359,-0.148 -11.1,-13.904 l 13.979,-17.531 z"
             style="fill:#ffc600;fill-opacity:1;fill-rule:nonzero;stroke:none"
             id="path5663" />
        </g>
        <g
           id="g5665"
           transform="translate(90.1172,204.5361)">
          <path
             d="m 0,0 c -2.673,-2.707 -5.592,-5.663 -8.786,-8.898 -17.269,-17.495 -20.519,-21.316 -21.001,-26.5 l 25.051,-16.534 c 2.545,0.197 5.199,0.616 7.925,1.274 4.408,1.066 8.225,2.359 16.401,6.12 l 10.622,43.489 z"
             style="fill:#ffb100;fill-opacity:1;fill-rule:nonzero;stroke:none"
             id="path5667" />
        </g>
        <g
           id="g5669"
           transform="translate(60.2573,167.4678)">
          <path
             d="M 0,0 C -0.051,-10.015 10.774,-15.976 25.124,-14.863 L 0.073,1.67 C 0.023,1.134 0.003,0.582 0,0"
             style="fill:#ffa100;fill-opacity:1;fill-rule:nonzero;stroke:none"
             id="path5671" />
        </g>
      </g>
    </g>
  </g>
</svg>
